<svg width="84" height="28" viewBox="0 0 84 28" fill="none" xmlns="http://www.w3.org/2000/svg">
<path d="M0.249023 28V24.9387H7.64102V3.54667L0.249023 9.072V5.33867L6.40902 0.746669H11.001V24.9387H17.049V28H0.249023ZM23.1944 28V24.9387H28.7571V3.808H23.1944V0.746669H37.7544V3.808H32.1917V24.9387H37.7544V28H23.1944ZM45.0198 28V0.746669H49.4998L57.8251 24.08C57.7753 23.4578 57.7131 22.6987 57.6384 21.8027C57.5887 20.8818 57.5389 19.9236 57.4891 18.928C57.4642 17.9076 57.4518 16.9493 57.4518 16.0533V0.746669H60.6998V28H56.2198L47.9318 4.66667C47.9816 5.264 48.0313 6.02311 48.0811 6.944C48.1309 7.84 48.1682 8.79822 48.1931 9.81867C48.2429 10.8142 48.2678 11.7724 48.2678 12.6933V28H45.0198ZM67.5918 28V0.709335H83.6452V3.77067H70.8772V12.8427H82.6745V15.904H70.9518V28H67.5918Z" fill="#5DA9E9"/>
</svg>
